<svg id="Camada_1" data-name="Camada 1" xmlns="http://www.w3.org/2000/svg" viewBox="0 0 387.39 386.26"><defs><style>.cls-1{fill:#666565;}.cls-2{fill:#211915;}</style></defs><title>logog4</title><path class="cls-1" d="M387.39,205.63v35.12H341.08v90.1H298.83v-90.1H287.72V205.63h11.11V95.18q0-26,1.52-51.92h-1.52c-10.18,19.34-18.33,33.6-27.49,48.87L190.41,204.62v36.14h-45.3V211.23L223,99.77l10.26-14.68-.07,0,22.07-31.84.21.07L292.72,0h48.36V205.63Z"/><path class="cls-2" d="M276.56,205.63v35.12h-.06v127c-19.5,7-58,18.5-103.5,18.5-51,0-93-13-126-44.5-29-28-47-73-47-125.5.5-100.5,69.5-174,182.5-174a249.75,249.75,0,0,1,53.7,5.67l-22.89,33a218.45,218.45,0,0,0-31.81-2.18c-82,0-135.5,51-135.5,135.5,0,85.5,51.5,136,130,136,28.5,0,48-4,58-9V240.76H201.58V205.63Z"/></svg>